<svg xmlns="http://www.w3.org/2000/svg" xmlns:xlink="http://www.w3.org/1999/xlink" version="1.1" xml:space="preserve" viewBox="0 0 300 190.2">
<desc>Created with Fabric.js 5.2.4</desc>
<defs>
</defs>
<rect x="0" y="0" width="100%" height="100%" fill="transparent"/>
<g transform="matrix(1 0 0 1 98 94)" id="3e1a30db-3932-4259-9132-7f072b18b305">
<rect style="stroke: none; stroke-width: 1; stroke-dasharray: none; stroke-linecap: butt; stroke-dashoffset: 0; stroke-linejoin: miter; stroke-miterlimit: 4; fill: rgb(255,255,255); fill-rule: nonzero; opacity: 1; visibility: hidden;" vector-effect="non-scaling-stroke" x="-98" y="-94" rx="0" ry="0" width="196" height="188"/>
</g>
<g transform="matrix(0 0 0 0 0 0)" id="1e69ff71-d4ab-46dd-86bd-9bef15b5f30f">
</g>
<g transform="matrix(0.6 0 0 0.6 127.71 134.06)">
<g style="" vector-effect="non-scaling-stroke">
		<g transform="matrix(1 0 0 1 -10.5 0)">
<path style="stroke: none; stroke-width: 1; stroke-dasharray: none; stroke-linecap: butt; stroke-dashoffset: 0; stroke-linejoin: miter; stroke-miterlimit: 4; fill: rgb(1,225,148); fill-rule: nonzero; opacity: 1;" vector-effect="non-scaling-stroke" transform=" translate(-68.5, -93.55)" d="M 0 0 C 45.21 0 90.42 0 137 0 C 136.67 15.18 136.34 30.36 136 46 C 134.68 46 133.36 46 132 46 C 132 32.8 132 19.6 132 6 C 90.42 6 48.84 6 6 6 C 6 64.08 6 122.16 6 182 C 46.92 182 87.84 182 130 182 C 130 181.34 130 180.68 130 180 C 130.66 180 131.32 180 132 180 C 132 169.44 132 158.88 132 148 C 133.32 148 134.64 148 136 148 C 136 159.22 136 170.44 136 182 C 135.34 182 134.68 182 134 182 C 134 182.66 134 183.32 134 184 C 133.34 184 132.68 184 132 184 C 132 184.66 132 185.32 132 186 C 115.23235141 186.15387025 98.46466308 186.30190438 81.69690228 186.4429636 C 73.91159568 186.50859423 66.12631452 186.57614487 58.34106445 186.64819336 C 51.55657814 186.71097545 44.77207173 186.77017768 37.9875167 186.82505554 C 34.39413582 186.85424683 30.80079085 186.88524803 27.20746422 186.92053413 C 23.19913368 186.95982854 19.19077941 186.99113146 15.18237305 187.02172852 C 13.38918388 187.04114754 13.38918388 187.04114754 11.55976868 187.06095886 C 10.47021881 187.06799835 9.38066895 187.07503784 8.25810242 187.08229065 C 6.83531495 187.09473485 6.83531495 187.09473485 5.38378429 187.10743046 C 3 187 3 187 0 186 C 0 124.62 0 63.24 0 0 Z" stroke-linecap="round"/>
</g>
		<g transform="matrix(1 0 0 1 55 4.45)">
<path style="stroke: none; stroke-width: 1; stroke-dasharray: none; stroke-linecap: butt; stroke-dashoffset: 0; stroke-linejoin: miter; stroke-miterlimit: 4; fill: rgb(1,225,148); fill-rule: nonzero; opacity: 1;" vector-effect="non-scaling-stroke" transform=" translate(-8, -24)" d="M 0 0 C 3.3 0 6.6 0 10 0 C 10 1.32 10 2.64 10 4 C 7.36 4 4.72 4 2 4 C 2 4.66 2 5.32 2 6 C 0.68 6 -0.64 6 -2 6 C -2 6.66 -2 7.32 -2 8 C -3.32 8 -4.64 8 -6 8 C -6 8.66 -6 9.32 -6 10 C -6.66 10 -7.32 10 -8 10 C -8 11.32 -8 12.64 -8 14 C -8.66 14 -9.32 14 -10 14 C -10 15.32 -10 16.64 -10 18 C -10.66 18 -11.32 18 -12 18 C -12 21.96 -12 25.92 -12 30 C -11.34 30 -10.68 30 -10 30 C -10 31.32 -10 32.64 -10 34 C -9.34 34 -8.68 34 -8 34 C -8 34.66 -8 35.32 -8 36 C -7.34 36 -6.68 36 -6 36 C -6 36.66 -6 37.32 -6 38 C -5.34 38 -4.68 38 -4 38 C -4 38.66 -4 39.32 -4 40 C -3.34 40 -2.68 40 -2 40 C -2 40.66 -2 41.32 -2 42 C 3.94 42 9.88 42 16 42 C 16 41.34 16 40.68 16 40 C 17.32 40 18.64 40 20 40 C 20 39.34 20 38.68 20 38 C 20.66 38 21.32 38 22 38 C 22 37.34 22 36.68 22 36 C 22.66 36 23.32 36 24 36 C 24 34.68 24 33.36 24 32 C 24.66 32 25.32 32 26 32 C 26 30.02 26 28.04 26 26 C 26.66 26 27.32 26 28 26 C 28 24.68 28 23.36 28 22 C 29.32 22 30.64 22 32 22 C 32 23.98 32 25.96 32 28 C 31.34 28 30.68 28 30 28 C 30 29.98 30 31.96 30 34 C 29.34 34 28.68 34 28 34 C 28 35.32 28 36.64 28 38 C 27.34 38 26.68 38 26 38 C 26 38.66 26 39.32 26 40 C 25.34 40 24.68 40 24 40 C 24 40.66 24 41.32 24 42 C 23.34 42 22.68 42 22 42 C 22 42.66 22 43.32 22 44 C 20.68 44 19.36 44 18 44 C 18 44.66 18 45.32 18 46 C 16.02 46 14.04 46 12 46 C 12 46.66 12 47.32 12 48 C 9.36 48 6.72 48 4 48 C 4 47.34 4 46.68 4 46 C 2.02 46 0.04 46 -2 46 C -2 45.34 -2 44.68 -2 44 C -3.32 44 -4.64 44 -6 44 C -6 43.34 -6 42.68 -6 42 C -6.66 42 -7.32 42 -8 42 C -8 41.34 -8 40.68 -8 40 C -8.66 40 -9.32 40 -10 40 C -10 39.34 -10 38.68 -10 38 C -10.66 38 -11.32 38 -12 38 C -12 37.34 -12 36.68 -12 36 C -12.66 36 -13.32 36 -14 36 C -14 34.68 -14 33.36 -14 32 C -14.66 32 -15.32 32 -16 32 C -16 26.72 -16 21.44 -16 16 C -15.34 16 -14.68 16 -14 16 C -14 14.68 -14 13.36 -14 12 C -13.34 12 -12.68 12 -12 12 C -12 10.68 -12 9.36 -12 8 C -11.34 8 -10.68 8 -10 8 C -10 7.34 -10 6.68 -10 6 C -9.34 6 -8.68 6 -8 6 C -8 5.34 -8 4.68 -8 4 C -6.68 4 -5.36 4 -4 4 C -4 3.34 -4 2.68 -4 2 C -2.68 2 -1.36 2 0 2 C 0 1.34 0 0.68 0 0 Z" stroke-linecap="round"/>
</g>
		<g transform="matrix(1 0 0 1 -37 50.45)">
<path style="stroke: none; stroke-width: 1; stroke-dasharray: none; stroke-linecap: butt; stroke-dashoffset: 0; stroke-linejoin: miter; stroke-miterlimit: 4; fill: rgb(1,225,148); fill-rule: nonzero; opacity: 1;" vector-effect="non-scaling-stroke" transform=" translate(-16, -16)" d="M 0 0 C 10.56 0 21.12 0 32 0 C 32 1.32 32 2.64 32 4 C 22.76 4 13.52 4 4 4 C 4 13.24 4 22.48 4 32 C 2.68 32 1.36 32 0 32 C 0 21.44 0 10.88 0 0 Z" stroke-linecap="round"/>
</g>
		<g transform="matrix(1 0 0 1 -37 -0.55)">
<path style="stroke: none; stroke-width: 1; stroke-dasharray: none; stroke-linecap: butt; stroke-dashoffset: 0; stroke-linejoin: miter; stroke-miterlimit: 4; fill: rgb(1,225,148); fill-rule: nonzero; opacity: 1;" vector-effect="non-scaling-stroke" transform=" translate(-16, -15)" d="M 0 0 C 10.56 0 21.12 0 32 0 C 32 1.32 32 2.64 32 4 C 22.76 4 13.52 4 4 4 C 4 12.58 4 21.16 4 30 C 2.68 30 1.36 30 0 30 C 0 20.1 0 10.2 0 0 Z" stroke-linecap="round"/>
</g>
		<g transform="matrix(1 0 0 1 -37 -51.55)">
<path style="stroke: none; stroke-width: 1; stroke-dasharray: none; stroke-linecap: butt; stroke-dashoffset: 0; stroke-linejoin: miter; stroke-miterlimit: 4; fill: rgb(1,225,148); fill-rule: nonzero; opacity: 1;" vector-effect="non-scaling-stroke" transform=" translate(-14, -16)" d="M 0 0 C 9.24 0 18.48 0 28 0 C 28 0.66 28 1.32 28 2 C 28.66 2 29.32 2 30 2 C 30 2.66 30 3.32 30 4 C 20.76 4 11.52 4 2 4 C 2 13.24 2 22.48 2 32 C 0.68 32 -0.64 32 -2 32 C -2 22.1 -2 12.2 -2 2 C -1.34 2 -0.68 2 0 2 C 0 1.34 0 0.68 0 0 Z" stroke-linecap="round"/>
</g>
</g>
</g>
<g transform="matrix(0.25 0 0 0.25 113.42 166.13)">
<path style="stroke: rgb(0,0,0); stroke-width: 0; stroke-dasharray: none; stroke-linecap: butt; stroke-dashoffset: 0; stroke-linejoin: miter; stroke-miterlimit: 4; fill: rgb(1,225,148); fill-rule: nonzero; opacity: 1;" vector-effect="non-scaling-stroke" transform=" translate(-50, -50)" d="M 14.148 44.105 L 18.091 40.162 C 20.01 38.242 23.176000000000002 38.242 25.096 40.162 L 42.164 57.230999999999995 L 74.904 24.440999999999995 C 76.823 22.521999999999995 79.98899999999999 22.521999999999995 81.90899999999999 24.440999999999995 L 85.851 28.383999999999997 C 87.771 30.302999999999997 87.771 33.415 85.851 35.334999999999994 L 45.641 75.54499999999999 L 45.537 75.64899999999999 L 45.433 75.75299999999999 L 45.329 75.80499999999999 L 45.277 75.90899999999999 L 45.173 75.961 L 45.069 76.065 L 44.965 76.117 L 44.861000000000004 76.16900000000001 L 44.757000000000005 76.27400000000002 L 44.653000000000006 76.32400000000001 L 44.54900000000001 76.37800000000001 L 44.44500000000001 76.43000000000002 L 44.34100000000001 76.48200000000003 L 44.23700000000001 76.53400000000003 L 44.08000000000001 76.58600000000004 L 43.97600000000001 76.63800000000005 L 43.872000000000014 76.69000000000005 L 43.768000000000015 76.74200000000006 L 43.664000000000016 76.74200000000006 L 43.56000000000002 76.79400000000007 L 43.405000000000015 76.84700000000007 L 43.301000000000016 76.84700000000007 L 43.19700000000002 76.89900000000007 L 42.93800000000002 76.89900000000007 L 42.83400000000002 76.95100000000008 L 42.62600000000002 76.95100000000008 L 42.47100000000002 77.00300000000009 L 41.795000000000016 77.00300000000009 L 41.640000000000015 76.95100000000008 L 41.432000000000016 76.95100000000008 L 41.32800000000002 76.89900000000007 L 41.06900000000002 76.89900000000007 L 40.96500000000002 76.84700000000007 L 40.86100000000002 76.84700000000007 L 40.70600000000002 76.79400000000007 L 40.60200000000002 76.74200000000006 L 40.49800000000002 76.74200000000006 L 40.39400000000002 76.69000000000005 L 40.29000000000002 76.63800000000005 L 40.185000000000024 76.58600000000004 L 40.081000000000024 76.53400000000003 L 40.029000000000025 76.53400000000003 C 39.563000000000024 76.32500000000003 39.096000000000025 75.96200000000003 38.630000000000024 75.54800000000003 L 14.140000000000025 51.059000000000026 C 12.229 49.137 12.229 46.025 14.148 44.105 z" stroke-linecap="round"/>
</g>
<g transform="matrix(0.25 0 0 0.25 112.73 134.81)">
<path style="stroke: rgb(0,0,0); stroke-width: 0; stroke-dasharray: none; stroke-linecap: butt; stroke-dashoffset: 0; stroke-linejoin: miter; stroke-miterlimit: 4; fill: rgb(1,225,148); fill-rule: nonzero; opacity: 1;" vector-effect="non-scaling-stroke" transform=" translate(-50, -50)" d="M 14.148 44.105 L 18.091 40.162 C 20.01 38.242 23.176000000000002 38.242 25.096 40.162 L 42.164 57.230999999999995 L 74.904 24.440999999999995 C 76.823 22.521999999999995 79.98899999999999 22.521999999999995 81.90899999999999 24.440999999999995 L 85.851 28.383999999999997 C 87.771 30.302999999999997 87.771 33.415 85.851 35.334999999999994 L 45.641 75.54499999999999 L 45.537 75.64899999999999 L 45.433 75.75299999999999 L 45.329 75.80499999999999 L 45.277 75.90899999999999 L 45.173 75.961 L 45.069 76.065 L 44.965 76.117 L 44.861000000000004 76.16900000000001 L 44.757000000000005 76.27400000000002 L 44.653000000000006 76.32400000000001 L 44.54900000000001 76.37800000000001 L 44.44500000000001 76.43000000000002 L 44.34100000000001 76.48200000000003 L 44.23700000000001 76.53400000000003 L 44.08000000000001 76.58600000000004 L 43.97600000000001 76.63800000000005 L 43.872000000000014 76.69000000000005 L 43.768000000000015 76.74200000000006 L 43.664000000000016 76.74200000000006 L 43.56000000000002 76.79400000000007 L 43.405000000000015 76.84700000000007 L 43.301000000000016 76.84700000000007 L 43.19700000000002 76.89900000000007 L 42.93800000000002 76.89900000000007 L 42.83400000000002 76.95100000000008 L 42.62600000000002 76.95100000000008 L 42.47100000000002 77.00300000000009 L 41.795000000000016 77.00300000000009 L 41.640000000000015 76.95100000000008 L 41.432000000000016 76.95100000000008 L 41.32800000000002 76.89900000000007 L 41.06900000000002 76.89900000000007 L 40.96500000000002 76.84700000000007 L 40.86100000000002 76.84700000000007 L 40.70600000000002 76.79400000000007 L 40.60200000000002 76.74200000000006 L 40.49800000000002 76.74200000000006 L 40.39400000000002 76.69000000000005 L 40.29000000000002 76.63800000000005 L 40.185000000000024 76.58600000000004 L 40.081000000000024 76.53400000000003 L 40.029000000000025 76.53400000000003 C 39.563000000000024 76.32500000000003 39.096000000000025 75.96200000000003 38.630000000000024 75.54800000000003 L 14.140000000000025 51.059000000000026 C 12.229 49.137 12.229 46.025 14.148 44.105 z" stroke-linecap="round"/>
</g>
<g transform="matrix(0.25 0 0 0.25 112.06 104.36)">
<path style="stroke: rgb(0,0,0); stroke-width: 0; stroke-dasharray: none; stroke-linecap: butt; stroke-dashoffset: 0; stroke-linejoin: miter; stroke-miterlimit: 4; fill: rgb(1,225,148); fill-rule: nonzero; opacity: 1;" vector-effect="non-scaling-stroke" transform=" translate(-50, -50)" d="M 14.148 44.105 L 18.091 40.162 C 20.01 38.242 23.176000000000002 38.242 25.096 40.162 L 42.164 57.230999999999995 L 74.904 24.440999999999995 C 76.823 22.521999999999995 79.98899999999999 22.521999999999995 81.90899999999999 24.440999999999995 L 85.851 28.383999999999997 C 87.771 30.302999999999997 87.771 33.415 85.851 35.334999999999994 L 45.641 75.54499999999999 L 45.537 75.64899999999999 L 45.433 75.75299999999999 L 45.329 75.80499999999999 L 45.277 75.90899999999999 L 45.173 75.961 L 45.069 76.065 L 44.965 76.117 L 44.861000000000004 76.16900000000001 L 44.757000000000005 76.27400000000002 L 44.653000000000006 76.32400000000001 L 44.54900000000001 76.37800000000001 L 44.44500000000001 76.43000000000002 L 44.34100000000001 76.48200000000003 L 44.23700000000001 76.53400000000003 L 44.08000000000001 76.58600000000004 L 43.97600000000001 76.63800000000005 L 43.872000000000014 76.69000000000005 L 43.768000000000015 76.74200000000006 L 43.664000000000016 76.74200000000006 L 43.56000000000002 76.79400000000007 L 43.405000000000015 76.84700000000007 L 43.301000000000016 76.84700000000007 L 43.19700000000002 76.89900000000007 L 42.93800000000002 76.89900000000007 L 42.83400000000002 76.95100000000008 L 42.62600000000002 76.95100000000008 L 42.47100000000002 77.00300000000009 L 41.795000000000016 77.00300000000009 L 41.640000000000015 76.95100000000008 L 41.432000000000016 76.95100000000008 L 41.32800000000002 76.89900000000007 L 41.06900000000002 76.89900000000007 L 40.96500000000002 76.84700000000007 L 40.86100000000002 76.84700000000007 L 40.70600000000002 76.79400000000007 L 40.60200000000002 76.74200000000006 L 40.49800000000002 76.74200000000006 L 40.39400000000002 76.69000000000005 L 40.29000000000002 76.63800000000005 L 40.185000000000024 76.58600000000004 L 40.081000000000024 76.53400000000003 L 40.029000000000025 76.53400000000003 C 39.563000000000024 76.32500000000003 39.096000000000025 75.96200000000003 38.630000000000024 75.54800000000003 L 14.140000000000025 51.059000000000026 C 12.229 49.137 12.229 46.025 14.148 44.105 z" stroke-linecap="round"/>
</g>
<g transform="matrix(0 0 0 0 0 0)">
<g style="">
</g>
</g>
<g transform="matrix(0 0 0 0 0 0)">
<g style="">
</g>
</g>
<g transform="matrix(0.96 0 0 0.96 169.92 145.51)">
<g style="" vector-effect="non-scaling-stroke">
		<g transform="matrix(1 0 0 1 -8.37 -8.82)">
<path style="stroke: none; stroke-width: 1; stroke-dasharray: none; stroke-linecap: butt; stroke-dashoffset: 0; stroke-linejoin: miter; stroke-miterlimit: 4; fill: rgb(1,225,148); fill-rule: nonzero; opacity: 1;" vector-effect="non-scaling-stroke" transform=" translate(-41.63, -41.18)" d="M 51.62 37.497 L 31.626 37.497 C 29.594 37.497 27.948 39.145 27.948 41.177 C 27.948 43.208999999999996 29.594 44.858 31.626 44.858 L 51.62 44.858 C 53.652 44.858 55.303 43.209999999999994 55.303 41.177 C 55.303 39.144000000000005 53.652 37.497 51.62 37.497 z" stroke-linecap="round"/>
</g>
		<g transform="matrix(1 0 0 1 0 0)">
<path style="stroke: none; stroke-width: 1; stroke-dasharray: none; stroke-linecap: butt; stroke-dashoffset: 0; stroke-linejoin: miter; stroke-miterlimit: 4; fill: rgb(1,225,148); fill-rule: nonzero; opacity: 1;" vector-effect="non-scaling-stroke" transform=" translate(-50, -50)" d="M 84.466 72.431 L 68.154 56.063 C 67.878 55.843 67.658 55.623000000000005 67.38499999999999 55.403000000000006 C 69.69099999999999 51.230000000000004 71.00699999999999 46.452000000000005 71.00699999999999 41.342000000000006 C 71.00699999999999 25.303000000000004 57.99199999999999 12.287000000000006 41.95399999999999 12.287000000000006 C 25.914999999999992 12.287000000000006 12.895999999999994 25.304000000000006 12.895999999999994 41.342000000000006 C 12.895999999999994 57.38000000000001 25.914999999999992 70.45100000000001 41.95399999999999 70.45100000000001 C 46.400999999999996 70.45100000000001 50.63199999999999 69.409 54.419999999999995 67.596 C 54.748999999999995 68.037 55.081999999999994 68.419 55.410999999999994 68.805 L 71.78 85.116 C 75.239 88.579 80.95 88.579 84.46600000000001 85.116 C 87.981 81.603 87.981 75.89 84.466 72.431 z M 41.955 59.247 C 32.122 59.247 24.102999999999998 51.229 24.102999999999998 41.342 C 24.102999999999998 31.509999999999998 32.122 23.491 41.955 23.491 C 51.839999999999996 23.491 59.806 31.509999999999998 59.806 41.342 C 59.806 51.229 51.84 59.247 41.955 59.247 z" stroke-linecap="round"/>
</g>
</g>
</g>
<g transform="matrix(0.54 0 0 0.54 162.11 137.25)">
<path style="stroke: rgb(0,0,0); stroke-width: 3; stroke-dasharray: none; stroke-linecap: butt; stroke-dashoffset: 0; stroke-linejoin: miter; stroke-miterlimit: 4; fill: rgb(0,0,0); fill-rule: nonzero; opacity: 1;" vector-effect="non-scaling-stroke" transform=" translate(-50, -50)" d="M 50 92.875 C 26.358 92.875 7.125 73.642 7.125 50 C 7.125 26.358000000000004 26.358 7.125 50 7.125 C 73.642 7.125 92.875 26.358 92.875 50 C 92.875 73.642 73.642 92.875 50 92.875 z M 50 9.125 C 27.461 9.125 9.125 27.461 9.125 50 C 9.125 72.538 27.461 90.875 50 90.875 C 72.538 90.875 90.875 72.538 90.875 50 C 90.875 27.461 72.538 9.125 50 9.125 z" stroke-linecap="round"/>
</g>
<g transform="matrix(0.26 0.26 -0.26 0.26 187.74 164.17)">
<path style="stroke: rgb(0,0,0); stroke-width: 0; stroke-dasharray: none; stroke-linecap: butt; stroke-dashoffset: 0; stroke-linejoin: miter; stroke-miterlimit: 4; fill: rgb(0,0,0); fill-rule: nonzero; opacity: 1;" vector-effect="non-scaling-stroke" transform=" translate(-50, -50)" d="M 94.75 50 C 94.75 56.213 89.514 61.25 83.054 61.25 L 16.946 61.25 C 10.486 61.25 5.25 56.213 5.25 50 L 5.25 50 C 5.25 43.787 10.486 38.75 16.945999999999998 38.75 L 83.053 38.75 C 89.514 38.75 94.75 43.787 94.75 50 L 94.75 50 z" stroke-linecap="round"/>
</g>
</svg>