<svg xmlns="http://www.w3.org/2000/svg" xmlns:xlink="http://www.w3.org/1999/xlink" version="1.1" xml:space="preserve" viewBox="461 446.45 205.25 187.12">
<desc>Created with Fabric.js 5.2.4</desc>
<defs>
</defs>
<g transform="matrix(1 0 0 1 540 540)">
<g style="" vector-effect="non-scaling-stroke">
		<g transform="matrix(1 0 0 1 -10.5 0)">
<path style="stroke: none; stroke-width: 1; stroke-dasharray: none; stroke-linecap: butt; stroke-dashoffset: 0; stroke-linejoin: miter; stroke-miterlimit: 4; fill: rgb(1,225,148); fill-rule: nonzero; opacity: 1;" vector-effect="non-scaling-stroke" transform=" translate(-68.5, -93.55)" d="M 0 0 C 45.21 0 90.42 0 137 0 C 136.67 15.18 136.34 30.36 136 46 C 134.68 46 133.36 46 132 46 C 132 32.8 132 19.6 132 6 C 90.42 6 48.84 6 6 6 C 6 64.08 6 122.16 6 182 C 46.92 182 87.84 182 130 182 C 130 181.34 130 180.68 130 180 C 130.66 180 131.32 180 132 180 C 132 169.44 132 158.88 132 148 C 133.32 148 134.64 148 136 148 C 136 159.22 136 170.44 136 182 C 135.34 182 134.68 182 134 182 C 134 182.66 134 183.32 134 184 C 133.34 184 132.68 184 132 184 C 132 184.66 132 185.32 132 186 C 115.23235141 186.15387025 98.46466308 186.30190438 81.69690228 186.4429636 C 73.91159568 186.50859423 66.12631452 186.57614487 58.34106445 186.64819336 C 51.55657814 186.71097545 44.77207173 186.77017768 37.9875167 186.82505554 C 34.39413582 186.85424683 30.80079085 186.88524803 27.20746422 186.92053413 C 23.19913368 186.95982854 19.19077941 186.99113146 15.18237305 187.02172852 C 13.38918388 187.04114754 13.38918388 187.04114754 11.55976868 187.06095886 C 10.47021881 187.06799835 9.38066895 187.07503784 8.25810242 187.08229065 C 6.83531495 187.09473485 6.83531495 187.09473485 5.38378429 187.10743046 C 3 187 3 187 0 186 C 0 124.62 0 63.24 0 0 Z" stroke-linecap="round"/>
</g>
		<g transform="matrix(1 0 0 1 -37 50.45)">
<path style="stroke: none; stroke-width: 1; stroke-dasharray: none; stroke-linecap: butt; stroke-dashoffset: 0; stroke-linejoin: miter; stroke-miterlimit: 4; fill: rgb(1,225,148); fill-rule: nonzero; opacity: 1;" vector-effect="non-scaling-stroke" transform=" translate(-16, -16)" d="M 0 0 C 10.56 0 21.12 0 32 0 C 32 1.32 32 2.64 32 4 C 22.76 4 13.52 4 4 4 C 4 13.24 4 22.48 4 32 C 2.68 32 1.36 32 0 32 C 0 21.44 0 10.88 0 0 Z" stroke-linecap="round"/>
</g>
		<g transform="matrix(1 0 0 1 -37 -0.55)">
<path style="stroke: none; stroke-width: 1; stroke-dasharray: none; stroke-linecap: butt; stroke-dashoffset: 0; stroke-linejoin: miter; stroke-miterlimit: 4; fill: rgb(1,225,148); fill-rule: nonzero; opacity: 1;" vector-effect="non-scaling-stroke" transform=" translate(-16, -15)" d="M 0 0 C 10.56 0 21.12 0 32 0 C 32 1.32 32 2.64 32 4 C 22.76 4 13.52 4 4 4 C 4 12.58 4 21.16 4 30 C 2.68 30 1.36 30 0 30 C 0 20.1 0 10.2 0 0 Z" stroke-linecap="round"/>
</g>
		<g transform="matrix(1 0 0 1 -37 -51.55)">
<path style="stroke: none; stroke-width: 1; stroke-dasharray: none; stroke-linecap: butt; stroke-dashoffset: 0; stroke-linejoin: miter; stroke-miterlimit: 4; fill: rgb(1,225,148); fill-rule: nonzero; opacity: 1;" vector-effect="non-scaling-stroke" transform=" translate(-14, -16)" d="M 0 0 C 9.24 0 18.48 0 28 0 C 28 0.66 28 1.32 28 2 C 28.66 2 29.32 2 30 2 C 30 2.66 30 3.32 30 4 C 20.76 4 11.52 4 2 4 C 2 13.24 2 22.48 2 32 C 0.68 32 -0.64 32 -2 32 C -2 22.1 -2 12.2 -2 2 C -1.34 2 -0.68 2 0 2 C 0 1.34 0 0.68 0 0 Z" stroke-linecap="round"/>
</g>
</g>
</g>
<g transform="matrix(0.39 0 0 0.39 506.44 589.99)">
<path style="stroke: rgb(0,0,0); stroke-width: 0; stroke-dasharray: none; stroke-linecap: butt; stroke-dashoffset: 0; stroke-linejoin: miter; stroke-miterlimit: 4; fill: rgb(1,225,148); fill-rule: nonzero; opacity: 1;" vector-effect="non-scaling-stroke" transform=" translate(-50, -50)" d="M 14.148 44.105 L 18.091 40.162 C 20.01 38.242 23.176000000000002 38.242 25.096 40.162 L 42.164 57.230999999999995 L 74.904 24.440999999999995 C 76.823 22.521999999999995 79.98899999999999 22.521999999999995 81.90899999999999 24.440999999999995 L 85.851 28.383999999999997 C 87.771 30.302999999999997 87.771 33.415 85.851 35.334999999999994 L 45.641 75.54499999999999 L 45.537 75.64899999999999 L 45.433 75.75299999999999 L 45.329 75.80499999999999 L 45.277 75.90899999999999 L 45.173 75.961 L 45.069 76.065 L 44.965 76.117 L 44.861000000000004 76.16900000000001 L 44.757000000000005 76.27400000000002 L 44.653000000000006 76.32400000000001 L 44.54900000000001 76.37800000000001 L 44.44500000000001 76.43000000000002 L 44.34100000000001 76.48200000000003 L 44.23700000000001 76.53400000000003 L 44.08000000000001 76.58600000000004 L 43.97600000000001 76.63800000000005 L 43.872000000000014 76.69000000000005 L 43.768000000000015 76.74200000000006 L 43.664000000000016 76.74200000000006 L 43.56000000000002 76.79400000000007 L 43.405000000000015 76.84700000000007 L 43.301000000000016 76.84700000000007 L 43.19700000000002 76.89900000000007 L 42.93800000000002 76.89900000000007 L 42.83400000000002 76.95100000000008 L 42.62600000000002 76.95100000000008 L 42.47100000000002 77.00300000000009 L 41.795000000000016 77.00300000000009 L 41.640000000000015 76.95100000000008 L 41.432000000000016 76.95100000000008 L 41.32800000000002 76.89900000000007 L 41.06900000000002 76.89900000000007 L 40.96500000000002 76.84700000000007 L 40.86100000000002 76.84700000000007 L 40.70600000000002 76.79400000000007 L 40.60200000000002 76.74200000000006 L 40.49800000000002 76.74200000000006 L 40.39400000000002 76.69000000000005 L 40.29000000000002 76.63800000000005 L 40.185000000000024 76.58600000000004 L 40.081000000000024 76.53400000000003 L 40.029000000000025 76.53400000000003 C 39.563000000000024 76.32500000000003 39.096000000000025 75.96200000000003 38.630000000000024 75.54800000000003 L 14.140000000000025 51.059000000000026 C 12.229 49.137 12.229 46.025 14.148 44.105 z" stroke-linecap="round"/>
</g>
<g transform="matrix(0.39 0 0 0.39 506.52 540)">
<path style="stroke: rgb(0,0,0); stroke-width: 0; stroke-dasharray: none; stroke-linecap: butt; stroke-dashoffset: 0; stroke-linejoin: miter; stroke-miterlimit: 4; fill: rgb(1,225,148); fill-rule: nonzero; opacity: 1;" vector-effect="non-scaling-stroke" transform=" translate(-50, -50)" d="M 14.148 44.105 L 18.091 40.162 C 20.01 38.242 23.176000000000002 38.242 25.096 40.162 L 42.164 57.230999999999995 L 74.904 24.440999999999995 C 76.823 22.521999999999995 79.98899999999999 22.521999999999995 81.90899999999999 24.440999999999995 L 85.851 28.383999999999997 C 87.771 30.302999999999997 87.771 33.415 85.851 35.334999999999994 L 45.641 75.54499999999999 L 45.537 75.64899999999999 L 45.433 75.75299999999999 L 45.329 75.80499999999999 L 45.277 75.90899999999999 L 45.173 75.961 L 45.069 76.065 L 44.965 76.117 L 44.861000000000004 76.16900000000001 L 44.757000000000005 76.27400000000002 L 44.653000000000006 76.32400000000001 L 44.54900000000001 76.37800000000001 L 44.44500000000001 76.43000000000002 L 44.34100000000001 76.48200000000003 L 44.23700000000001 76.53400000000003 L 44.08000000000001 76.58600000000004 L 43.97600000000001 76.63800000000005 L 43.872000000000014 76.69000000000005 L 43.768000000000015 76.74200000000006 L 43.664000000000016 76.74200000000006 L 43.56000000000002 76.79400000000007 L 43.405000000000015 76.84700000000007 L 43.301000000000016 76.84700000000007 L 43.19700000000002 76.89900000000007 L 42.93800000000002 76.89900000000007 L 42.83400000000002 76.95100000000008 L 42.62600000000002 76.95100000000008 L 42.47100000000002 77.00300000000009 L 41.795000000000016 77.00300000000009 L 41.640000000000015 76.95100000000008 L 41.432000000000016 76.95100000000008 L 41.32800000000002 76.89900000000007 L 41.06900000000002 76.89900000000007 L 40.96500000000002 76.84700000000007 L 40.86100000000002 76.84700000000007 L 40.70600000000002 76.79400000000007 L 40.60200000000002 76.74200000000006 L 40.49800000000002 76.74200000000006 L 40.39400000000002 76.69000000000005 L 40.29000000000002 76.63800000000005 L 40.185000000000024 76.58600000000004 L 40.081000000000024 76.53400000000003 L 40.029000000000025 76.53400000000003 C 39.563000000000024 76.32500000000003 39.096000000000025 75.96200000000003 38.630000000000024 75.54800000000003 L 14.140000000000025 51.059000000000026 C 12.229 49.137 12.229 46.025 14.148 44.105 z" stroke-linecap="round"/>
</g>
<g transform="matrix(0.39 0 0 0.39 506.37 488.13)">
<path style="stroke: rgb(0,0,0); stroke-width: 0; stroke-dasharray: none; stroke-linecap: butt; stroke-dashoffset: 0; stroke-linejoin: miter; stroke-miterlimit: 4; fill: rgb(1,225,148); fill-rule: nonzero; opacity: 1;" vector-effect="non-scaling-stroke" transform=" translate(-50, -50)" d="M 14.148 44.105 L 18.091 40.162 C 20.01 38.242 23.176000000000002 38.242 25.096 40.162 L 42.164 57.230999999999995 L 74.904 24.440999999999995 C 76.823 22.521999999999995 79.98899999999999 22.521999999999995 81.90899999999999 24.440999999999995 L 85.851 28.383999999999997 C 87.771 30.302999999999997 87.771 33.415 85.851 35.334999999999994 L 45.641 75.54499999999999 L 45.537 75.64899999999999 L 45.433 75.75299999999999 L 45.329 75.80499999999999 L 45.277 75.90899999999999 L 45.173 75.961 L 45.069 76.065 L 44.965 76.117 L 44.861000000000004 76.16900000000001 L 44.757000000000005 76.27400000000002 L 44.653000000000006 76.32400000000001 L 44.54900000000001 76.37800000000001 L 44.44500000000001 76.43000000000002 L 44.34100000000001 76.48200000000003 L 44.23700000000001 76.53400000000003 L 44.08000000000001 76.58600000000004 L 43.97600000000001 76.63800000000005 L 43.872000000000014 76.69000000000005 L 43.768000000000015 76.74200000000006 L 43.664000000000016 76.74200000000006 L 43.56000000000002 76.79400000000007 L 43.405000000000015 76.84700000000007 L 43.301000000000016 76.84700000000007 L 43.19700000000002 76.89900000000007 L 42.93800000000002 76.89900000000007 L 42.83400000000002 76.95100000000008 L 42.62600000000002 76.95100000000008 L 42.47100000000002 77.00300000000009 L 41.795000000000016 77.00300000000009 L 41.640000000000015 76.95100000000008 L 41.432000000000016 76.95100000000008 L 41.32800000000002 76.89900000000007 L 41.06900000000002 76.89900000000007 L 40.96500000000002 76.84700000000007 L 40.86100000000002 76.84700000000007 L 40.70600000000002 76.79400000000007 L 40.60200000000002 76.74200000000006 L 40.49800000000002 76.74200000000006 L 40.39400000000002 76.69000000000005 L 40.29000000000002 76.63800000000005 L 40.185000000000024 76.58600000000004 L 40.081000000000024 76.53400000000003 L 40.029000000000025 76.53400000000003 C 39.563000000000024 76.32500000000003 39.096000000000025 75.96200000000003 38.630000000000024 75.54800000000003 L 14.140000000000025 51.059000000000026 C 12.229 49.137 12.229 46.025 14.148 44.105 z" stroke-linecap="round"/>
</g>
<g transform="matrix(1.56 0 0 1.56 608.34 556.7)">
<g style="" vector-effect="non-scaling-stroke">
<path style="stroke: none; stroke-width: 0; stroke-dasharray: none; stroke-linecap: butt; stroke-dashoffset: 0; stroke-linejoin: miter; stroke-miterlimit: 4; fill: rgb(1,225,148); fill-rule: nonzero; opacity: 1;" vector-effect="non-scaling-stroke" transform=" translate(-50, -50)" d="M 84.466 72.431 L 68.154 56.063 C 67.878 55.843 67.658 55.623000000000005 67.38499999999999 55.403000000000006 C 69.69099999999999 51.230000000000004 71.00699999999999 46.452000000000005 71.00699999999999 41.342000000000006 C 71.00699999999999 25.303000000000004 57.99199999999999 12.287000000000006 41.95399999999999 12.287000000000006 C 25.914999999999992 12.287000000000006 12.895999999999994 25.304000000000006 12.895999999999994 41.342000000000006 C 12.895999999999994 57.38000000000001 25.914999999999992 70.45100000000001 41.95399999999999 70.45100000000001 C 46.400999999999996 70.45100000000001 50.63199999999999 69.409 54.419999999999995 67.596 C 54.748999999999995 68.037 55.081999999999994 68.419 55.410999999999994 68.805 L 71.78 85.116 C 75.239 88.579 80.95 88.579 84.46600000000001 85.116 C 87.981 81.603 87.981 75.89 84.466 72.431 z M 41.955 59.247 C 32.122 59.247 24.102999999999998 51.229 24.102999999999998 41.342 C 24.102999999999998 31.509999999999998 32.122 23.491 41.955 23.491 C 51.839999999999996 23.491 59.806 31.509999999999998 59.806 41.342 C 59.806 51.229 51.84 59.247 41.955 59.247 z" stroke-linecap="round"/>
		<g transform="matrix(1 0 0 1 0 0)">
</g>
</g>
</g>
</svg>