<?xml version="1.0" encoding="UTF-8"?>
<svg version="1.1" xmlns="http://www.w3.org/2000/svg" width="196" height="188">
<path d="M0 0 C45.21 0 90.42 0 137 0 C136.67 15.18 136.34 30.36 136 46 C134.68 46 133.36 46 132 46 C132 32.8 132 19.6 132 6 C90.42 6 48.84 6 6 6 C6 64.08 6 122.16 6 182 C46.92 182 87.84 182 130 182 C130 181.34 130 180.68 130 180 C130.66 180 131.32 180 132 180 C132 169.44 132 158.88 132 148 C133.32 148 134.64 148 136 148 C136 159.22 136 170.44 136 182 C135.34 182 134.68 182 134 182 C134 182.66 134 183.32 134 184 C133.34 184 132.68 184 132 184 C132 184.66 132 185.32 132 186 C115.23235141 186.15387025 98.46466308 186.30190438 81.69690228 186.4429636 C73.91159568 186.50859423 66.12631452 186.57614487 58.34106445 186.64819336 C51.55657814 186.71097545 44.77207173 186.77017768 37.9875167 186.82505554 C34.39413582 186.85424683 30.80079085 186.88524803 27.20746422 186.92053413 C23.19913368 186.95982854 19.19077941 186.99113146 15.18237305 187.02172852 C13.38918388 187.04114754 13.38918388 187.04114754 11.55976868 187.06095886 C10.47021881 187.06799835 9.38066895 187.07503784 8.25810242 187.08229065 C6.83531495 187.09473485 6.83531495 187.09473485 5.38378429 187.10743046 C3 187 3 187 0 186 C0 124.62 0 63.24 0 0 Z " fill="#01E194" transform="translate(0,0)"/>
<path d="M0 0 C3.3 0 6.6 0 10 0 C10 1.32 10 2.64 10 4 C7.36 4 4.72 4 2 4 C2 4.66 2 5.32 2 6 C0.68 6 -0.64 6 -2 6 C-2 6.66 -2 7.32 -2 8 C-3.32 8 -4.64 8 -6 8 C-6 8.66 -6 9.32 -6 10 C-6.66 10 -7.32 10 -8 10 C-8 11.32 -8 12.64 -8 14 C-8.66 14 -9.32 14 -10 14 C-10 15.32 -10 16.64 -10 18 C-10.66 18 -11.32 18 -12 18 C-12 21.96 -12 25.92 -12 30 C-11.34 30 -10.68 30 -10 30 C-10 31.32 -10 32.64 -10 34 C-9.34 34 -8.68 34 -8 34 C-8 34.66 -8 35.32 -8 36 C-7.34 36 -6.68 36 -6 36 C-6 36.66 -6 37.32 -6 38 C-5.34 38 -4.68 38 -4 38 C-4 38.66 -4 39.32 -4 40 C-3.34 40 -2.68 40 -2 40 C-2 40.66 -2 41.32 -2 42 C3.94 42 9.88 42 16 42 C16 41.34 16 40.68 16 40 C17.32 40 18.64 40 20 40 C20 39.34 20 38.68 20 38 C20.66 38 21.32 38 22 38 C22 37.34 22 36.68 22 36 C22.66 36 23.32 36 24 36 C24 34.68 24 33.36 24 32 C24.66 32 25.32 32 26 32 C26 30.02 26 28.04 26 26 C26.66 26 27.32 26 28 26 C28 24.68 28 23.36 28 22 C29.32 22 30.64 22 32 22 C32 23.98 32 25.96 32 28 C31.34 28 30.68 28 30 28 C30 29.98 30 31.96 30 34 C29.34 34 28.68 34 28 34 C28 35.32 28 36.64 28 38 C27.34 38 26.68 38 26 38 C26 38.66 26 39.32 26 40 C25.34 40 24.68 40 24 40 C24 40.66 24 41.32 24 42 C23.34 42 22.68 42 22 42 C22 42.66 22 43.32 22 44 C20.68 44 19.36 44 18 44 C18 44.66 18 45.32 18 46 C16.02 46 14.04 46 12 46 C12 46.66 12 47.32 12 48 C9.36 48 6.72 48 4 48 C4 47.34 4 46.68 4 46 C2.02 46 0.04 46 -2 46 C-2 45.34 -2 44.68 -2 44 C-3.32 44 -4.64 44 -6 44 C-6 43.34 -6 42.68 -6 42 C-6.66 42 -7.32 42 -8 42 C-8 41.34 -8 40.68 -8 40 C-8.66 40 -9.32 40 -10 40 C-10 39.34 -10 38.68 -10 38 C-10.66 38 -11.32 38 -12 38 C-12 37.34 -12 36.68 -12 36 C-12.66 36 -13.32 36 -14 36 C-14 34.68 -14 33.36 -14 32 C-14.66 32 -15.32 32 -16 32 C-16 26.72 -16 21.44 -16 16 C-15.34 16 -14.68 16 -14 16 C-14 14.68 -14 13.36 -14 12 C-13.34 12 -12.68 12 -12 12 C-12 10.68 -12 9.36 -12 8 C-11.34 8 -10.68 8 -10 8 C-10 7.34 -10 6.68 -10 6 C-9.34 6 -8.68 6 -8 6 C-8 5.34 -8 4.68 -8 4 C-6.68 4 -5.36 4 -4 4 C-4 3.34 -4 2.68 -4 2 C-2.68 2 -1.36 2 0 2 C0 1.34 0 0.68 0 0 Z " fill="#01E194" transform="translate(126,74)"/>
<path d="M0 0 C10.56 0 21.12 0 32 0 C32 1.32 32 2.64 32 4 C22.76 4 13.52 4 4 4 C4 13.24 4 22.48 4 32 C2.68 32 1.36 32 0 32 C0 21.44 0 10.88 0 0 Z " fill="#01E194" transform="translate(26,128)"/>
<path d="M0 0 C10.56 0 21.12 0 32 0 C32 1.32 32 2.64 32 4 C22.76 4 13.52 4 4 4 C4 12.58 4 21.16 4 30 C2.68 30 1.36 30 0 30 C0 20.1 0 10.2 0 0 Z " fill="#01E194" transform="translate(26,78)"/>
<path d="M0 0 C9.24 0 18.48 0 28 0 C28 0.66 28 1.32 28 2 C28.66 2 29.32 2 30 2 C30 2.66 30 3.32 30 4 C20.76 4 11.52 4 2 4 C2 13.24 2 22.48 2 32 C0.68 32 -0.64 32 -2 32 C-2 22.1 -2 12.2 -2 2 C-1.34 2 -0.68 2 0 2 C0 1.34 0 0.68 0 0 Z " fill="#01E194" transform="translate(28,26)"/>
</svg>
