<svg xmlns="http://www.w3.org/2000/svg" viewBox="0 0 700 700" width="700" height="700" style="width: 100%; height: 100%; transform: translate3d(0px, 0px, 0px);" preserveAspectRatio="xMidYMid meet"><defs><clipPath id="__lottie_element_38"><rect width="700" height="700" x="0" y="0"></rect></clipPath></defs><g clip-path="url(#__lottie_element_38)"><g style="display: block;" transform="matrix(3,0,0,3,89.53997802734375,92.02700805664062)" opacity="1"><g opacity="1" transform="matrix(1,0,0,1,0,0)"><path stroke-linecap="round" stroke-linejoin="round" fill-opacity="0" stroke="rgb(1,225,148)" stroke-opacity="1" stroke-width="4" d=" M0,180.48300170898438 C0,180.48300170898438 57.608001708984375,180.48300170898438 57.608001708984375,180.48300170898438 C57.608001708984375,180.48300170898438 57.608001708984375,154.55799865722656 57.608001708984375,154.55799865722656 C57.608001708984375,154.55799865722656 115.48699951171875,154.55799865722656 115.48699951171875,154.55799865722656 C115.48699951171875,154.55799865722656 115.48699951171875,128.63299560546875 115.48699951171875,128.63299560546875 C115.48699951171875,128.63299560546875 173.36500549316406,128.63299560546875 173.36500549316406,128.63299560546875 C173.36500549316406,128.63299560546875 173.36500549316406,0 173.36500549316406,0"></path></g></g><g style="display: block;" transform="matrix(3,0,0,3,448.1289978027344,92.02799987792969)" opacity="1"><g opacity="1" transform="matrix(1,0,0,1,0,0)"><path stroke-linecap="round" stroke-linejoin="round" fill-opacity="0" stroke="rgb(1,225,148)" stroke-opacity="1" stroke-width="4" d=" M41.44499969482422,38.50299835205078 C41.44499969482422,38.50299835205078 0,21.7549991607666 0,21.7549991607666 C0,21.7549991607666 53.834999084472656,0 53.834999084472656,0"></path></g></g><g style="display: block;" transform="matrix(3,0,0,3,93.07899475097656,189.822021484375)" opacity="1"><g opacity="1" transform="matrix(1,0,0,1,0,0)"><path stroke-linecap="round" stroke-linejoin="round" fill-opacity="0" stroke="rgb(1,225,148)" stroke-opacity="1" stroke-width="4" d=" M68.06300354003906,24.135000228881836 C68.06300354003906,24.135000228881836 69.88999938964844,15.006999969482422 69.88999938964844,15.006999969482422 C71.44400024414062,7.24399995803833 65.50700378417969,0 57.5890007019043,0 C57.5890007019043,0 44.43000030517578,0 44.43000030517578,0 C44.43000030517578,0 26.493999481201172,0 26.493999481201172,0 C26.493999481201172,0 16.023000717163086,0 16.023000717163086,0 C11.456000328063965,0 7.5229997634887695,3.2230000495910645 6.625999927520752,7.701000213623047 C6.625999927520752,7.701000213623047 4.570000171661377,17.9689998626709 4.570000171661377,17.9689998626709 C4.570000171661377,17.9689998626709 0.19200000166893005,39.83599853515625 0.19200000166893005,39.83599853515625 C-0.6869999766349792,44.2239990234375 1.496999979019165,48.89099884033203 5.688000202178955,50.46200180053711 C11.027999877929688,52.46500015258789 16.645000457763672,49.18299865722656 17.715999603271484,43.83399963378906 C17.715999603271484,43.83399963378906 22.895999908447266,17.9689998626709 22.895999908447266,17.9689998626709 C22.895999908447266,17.9689998626709 40.832000732421875,17.9689998626709 40.832000732421875,17.9689998626709 C40.832000732421875,17.9689998626709 33.12300109863281,56.46799850463867 33.12300109863281,56.46799850463867 C33.12300109863281,56.46799850463867 29.524999618530273,74.43599700927734 29.524999618530273,74.43599700927734 C29.524999618530273,74.43599700927734 21.082000732421875,116.60299682617188 21.082000732421875,116.60299682617188 C20.202999114990234,120.99199676513672 22.386999130249023,125.65899658203125 26.577999114990234,127.2300033569336 C31.917999267578125,129.23300170898438 37.534000396728516,125.95099639892578 38.60599899291992,120.60199737548828 C38.60599899291992,120.60199737548828 47.849998474121094,74.43599700927734 47.849998474121094,74.43599700927734 C47.849998474121094,74.43599700927734 74.56199645996094,74.43599700927734 74.56199645996094,74.43599700927734 C74.56199645996094,74.43599700927734 69.89600372314453,97.73899841308594 69.89600372314453,97.73899841308594 C69.01699829101562,102.12899780273438 71.20099639892578,106.7959976196289 75.39199829101562,108.36900329589844 C80.73100280761719,110.3740005493164 86.3489990234375,107.09200286865234 87.4209976196289,101.74199676513672 C87.4209976196289,101.74199676513672 92.88899993896484,74.43599700927734 92.88899993896484,74.43599700927734 C92.88899993896484,74.43599700927734 94.16799926757812,68.04100036621094 94.16799926757812,68.04100036621094 C95.36599731445312,62.05500030517578 90.78800201416016,56.46799850463867 84.68199920654297,56.46799850463867 C84.68199920654297,56.46799850463867 79.50199890136719,56.46799850463867 79.50199890136719,56.46799850463867 C79.50199890136719,56.46799850463867 61.5890007019043,56.46799850463867 61.5890007019043,56.46799850463867 C61.5890007019043,56.46799850463867 64.46499633789062,42.104000091552734 64.46499633789062,42.104000091552734 C64.46499633789062,42.104000091552734 68.06300354003906,24.135000228881836 68.06300354003906,24.135000228881836z"></path></g></g><g style="display: block;" transform="matrix(3,0,0,3,320.21099853515625,254.19000244140625)" opacity="1"><g opacity="1" transform="matrix(1,0,0,1,0,0)"><path stroke-linecap="round" stroke-linejoin="round" fill-opacity="0" stroke="rgb(1,225,148)" stroke-opacity="1" stroke-width="4" d=" M0,17.9689998626709 C0,17.9689998626709 20.76300048828125,17.9689998626709 20.76300048828125,17.9689998626709 C26.2189998626709,17.9689998626709 30.538999557495117,13.104999542236328 29.62299919128418,7.47599983215332 C28.905000686645508,3.059000015258789 24.757999420166016,0 20.281999588012695,0 C20.281999588012695,0 3.5980000495910645,0 3.5980000495910645,0"></path></g></g><g style="display: block;" transform="matrix(3,0,0,3,238.7349853515625,65.54000091552734)" opacity="1"><g opacity="1" transform="matrix(1,0,0,1,0,0)"><path stroke-linecap="round" stroke-linejoin="round" fill-opacity="0" stroke="rgb(1,225,148)" stroke-opacity="1" stroke-width="4" d=" M19.56800079345703,0.8769999742507935 C25.160999298095703,2.9149999618530273 29.1560001373291,8.279999732971191 29.1560001373291,14.57800006866455 C29.1560001373291,14.57800006866455 29.1560001373291,14.57800006866455 29.1560001373291,14.57800006866455 C29.1560001373291,22.6299991607666 22.628000259399414,29.158000946044922 14.57699966430664,29.158000946044922 C6.526000022888184,29.158000946044922 0,22.6299991607666 0,14.57800006866455 C0,6.5269999504089355 6.526000022888184,0 14.57699966430664,0 C16.329999923706055,0 18.01099967956543,0.3089999854564667 19.56800079345703,0.8769999742507935"></path></g></g></g></svg>